<?xml version="1.0" encoding="UTF-8"?>
<svg xmlns="http://www.w3.org/2000/svg" width="201" height="30" viewBox="0 0 201 30" fill="none">
  <path d="M41.1913 2.15155V17.8333C41.1913 21.0169 42.7831 25.1332 47.6207 25.1332C52.4583 25.1332 54.0501 21.0169 54.0501 17.8333V2.15155H57.5198V18.3681C57.5198 24.2876 53.2169 28.379 47.6207 28.379C42.0245 28.379 37.7217 24.3 37.7217 18.3681V2.15155H41.1913Z" fill="#231F20"></path>
  <path d="M61.1758 2.15155H65.7273L79.8173 23.1808H79.8919V2.15155H83.3491V27.7324H78.9468L64.72 6.70312H64.6454V27.7324H61.1758V2.15155Z" fill="#231F20"></path>
  <path d="M96.7174 2.15155H99.8638L110.807 27.7324H106.766L104.204 21.4149H92.0291L89.5046 27.7324H85.4629L96.7174 2.15155ZM102.935 18.3681L98.1725 6.6285H98.0978L93.2602 18.3681H102.948H102.935Z" fill="#E31937"></path>
  <path d="M116.379 2.15155H112.909V27.7324H116.379V2.15155Z" fill="#E31937"></path>
  <path d="M119.923 2.15155H128.852C139.646 2.15155 142.295 10.2101 142.295 14.9357C142.295 21.4771 137.42 27.7199 128.28 27.7199H119.935V2.15155H119.923ZM123.392 24.4741H127.758C133.615 24.4741 138.589 21.2532 138.589 14.9357C138.589 11.6899 136.898 5.39734 128.578 5.39734H123.38V24.4741H123.392Z" fill="#E31937"></path>
  <path d="M145.815 22.3848C147.046 24.2626 149.173 25.1331 151.237 25.1331C153.513 25.1331 156.336 23.6905 156.336 20.8676C156.336 14.9854 143.726 18.6291 143.726 8.65545C143.726 5.65838 146.25 1.50476 152.394 1.50476C155.179 1.50476 157.853 2.08925 159.768 4.42722L156.958 6.98903C156.087 5.65838 154.396 4.75055 152.406 4.75055C148.576 4.75055 147.419 7.06364 147.419 8.65545C147.419 15.1222 160.029 11.2546 160.029 20.4696C160.029 25.4191 156.062 28.3789 151.137 28.3789C147.854 28.3789 144.708 27.2597 142.979 24.8347L145.827 22.3723L145.815 22.3848Z" fill="#E31937"></path>
  <path d="M8.22263 2.93475C7.42673 3.9172 7.15314 4.41463 6.39454 5.17323C5.74787 5.8199 4.45453 6.46657 4.00684 7.21273C4.39235 5.55875 5.1012 4.73797 5.8971 4.14104C6.75519 3.49437 7.72519 3.19591 8.22263 2.93475Z" fill="#231F20"></path>
  <path d="M2.61433 10.6577C2.67651 9.73744 2.17907 8.56846 2.55215 7.41191C3.0869 5.73305 3.90767 4.93715 4.23101 4.75061C3.82062 5.42215 3.72113 6.37972 3.54703 7.56114C3.45998 8.15807 3.18639 8.7923 3.09934 9.0659C3.48485 8.23268 3.84549 7.67307 4.79063 7.00152C5.73576 6.35485 6.25807 5.99421 6.6809 5.646C5.84769 8.33217 3.93255 8.03371 2.62677 10.6453" fill="#231F20"></path>
  <path d="M2.17951 14.7367C2.09246 13.7045 1.27169 12.7594 1.11002 11.2795C0.836426 8.76745 1.63233 8.0586 1.94323 7.56116C1.59502 8.86693 2.05515 9.48873 2.1422 10.8194C2.17951 11.2671 2.20438 12.2868 2.16708 13.0081C2.34118 12.1873 2.279 11.3541 3.28631 10.496C4.26876 9.61309 4.61696 9.07835 4.79107 8.64309C4.81594 11.4412 2.46554 11.3914 2.19195 14.7243" fill="#231F20"></path>
  <path d="M2.99994 18.5794C2.5025 17.3607 1.2216 16.4156 0.699285 15.3958C-0.544312 12.9708 0.201846 11.4661 0.43813 10.9686C0.400822 12.5107 1.05993 13.7419 1.61955 14.7119C1.98019 15.3585 2.41545 16.7265 2.53981 17.0996C2.45276 16.2664 2.17917 15.3585 2.71391 14.0901C3.22379 12.7967 3.69636 12.4734 3.83315 11.9386C4.50469 14.9854 2.44032 15.9306 2.99994 18.5794Z" fill="#231F20"></path>
  <path d="M4.71609 22.0116C3.92019 21.1535 2.46518 20.5566 1.66927 19.4622C0.425676 17.746 0.139648 16.4278 0.139648 15.7438C0.41324 16.5149 1.79363 17.6714 2.35325 18.3181C2.73877 18.7658 3.29839 19.7358 3.73365 20.569C3.43518 19.7731 3.26108 18.8777 3.373 18.0569C3.46005 17.261 3.8207 16.3781 3.80826 15.6941C4.34301 16.8755 4.51711 17.5222 4.43006 18.4051C4.28083 19.7109 3.9948 20.6187 4.72852 22.0116" fill="#231F20"></path>
  <path d="M7.63852 24.9961C6.04672 24.1753 4.44248 24.1131 3.50978 23.4043C1.49515 21.8746 1.34592 20.7803 1.12207 20.0092C1.83092 21.2777 3.37298 21.8746 4.13158 22.285C4.75338 22.6457 5.63633 23.2053 6.23326 23.852C5.72338 23.1804 5.1762 22.8198 4.96479 21.3399C4.77825 19.8351 5.07671 19.6237 4.79068 18.7781C5.64877 19.7232 6.00941 20.4942 6.1462 21.3772C6.32031 22.7327 6.4198 23.9763 7.62609 24.9836" fill="#231F20"></path>
  <path d="M10.0512 26.7251C8.52159 26.3644 6.92979 26.6753 5.73593 26.2152C4.11925 25.5934 3.16168 24.2006 2.81348 23.6409C4.19387 24.8597 5.47478 24.9716 6.48209 25.2079C7.51428 25.4193 8.58377 25.7675 9.23044 26.2028C8.72057 25.6183 7.89979 24.9343 7.51428 23.8648C7.15363 22.7704 7.36504 22.4471 6.89248 21.8004C7.89979 22.5963 8.39723 23.2181 8.80762 23.9891C9.40454 25.1333 9.46672 25.8172 10.0512 26.7375" fill="#231F20"></path>
  <path d="M25.2354 2.93475C26.0313 3.9172 26.3048 4.41463 27.0883 5.17323C27.7101 5.8199 29.0159 6.46657 29.476 7.21273C29.0656 5.55875 28.3817 4.73797 27.5609 4.14104C26.7028 3.49437 25.7577 3.19591 25.2478 2.93475" fill="#231F20"></path>
  <path d="M30.8693 10.6577C30.8071 9.73744 31.2797 8.56846 30.919 7.41191C30.3843 5.73305 29.5635 4.93715 29.2651 4.75061C29.6754 5.42215 29.7749 6.37972 29.9242 7.56114C30.0112 8.15807 30.3097 8.7923 30.3719 9.0659C30.0112 8.23268 29.6381 7.67307 28.693 7.00152C27.7479 6.35485 27.2131 5.99421 26.8027 5.646C27.6359 8.33217 29.5511 8.03371 30.8569 10.6453" fill="#231F20"></path>
  <path d="M31.2917 14.7367C31.3539 13.7045 32.1995 12.7594 32.3363 11.2795C32.6348 8.76745 31.8264 8.0586 31.5031 7.56116C31.8513 8.86693 31.416 9.48873 31.3041 10.8194C31.2792 11.2671 31.2419 12.2868 31.2792 13.0081C31.1051 12.1873 31.1673 11.3541 30.1849 10.496C29.1776 9.61309 28.8294 9.07835 28.6801 8.64309C28.6428 11.4412 30.9932 11.3914 31.2792 14.7243" fill="#231F20"></path>
  <path d="M30.4589 18.5794C30.9563 17.3607 32.2621 16.4156 32.772 15.3958C34.0031 12.9708 33.2446 11.4661 33.0083 10.9686C33.0705 12.5107 32.4113 13.7419 31.8517 14.7119C31.4662 15.3585 31.0558 16.7265 30.9315 17.0996C31.0185 16.2664 31.2672 15.3585 30.7574 14.0901C30.2226 12.7967 29.7625 12.4734 29.6132 11.9386C28.9666 14.9854 31.031 15.9306 30.4465 18.5794" fill="#231F20"></path>
  <path d="M28.7549 22.0115C29.5508 21.1534 30.9934 20.5565 31.8017 19.4621C33.0204 17.746 33.3313 16.4278 33.3313 15.7438C33.0702 16.4775 31.7644 17.6092 31.2296 18.2559C30.8193 18.7036 30.1601 19.7357 29.7498 20.5814C30.0482 19.7855 30.1975 18.8901 30.1104 18.0693C30.0234 17.2734 29.6627 16.3905 29.6627 15.7065C29.1528 16.8879 28.9787 17.5346 29.0658 18.4175C29.1901 19.7233 29.4886 20.6311 28.7673 22.024" fill="#231F20"></path>
  <path d="M25.8203 24.9961C27.4121 24.1753 29.0164 24.1131 29.9491 23.4043C31.9886 21.8746 32.1378 20.7803 32.3492 20.0092C31.6404 21.2777 30.0983 21.8746 29.3397 22.285C28.7179 22.6457 27.8101 23.2053 27.2131 23.852C27.7355 23.1804 28.2702 22.8198 28.4816 21.3399C28.693 19.8351 28.3946 19.6237 28.6557 18.7781C27.7976 19.7232 27.4246 20.4942 27.3251 21.3772C27.151 22.7327 27.039 23.9763 25.8203 24.9836" fill="#231F20"></path>
  <path d="M23.4072 26.7251C24.9493 26.3644 26.5162 26.6753 27.7225 26.2152C29.3516 25.5934 30.2968 24.2006 30.6698 23.6409C29.277 24.8597 27.9837 24.9716 26.9764 25.2079C25.9442 25.4193 24.8747 25.7675 24.2529 26.2028C24.7752 25.6183 25.5835 24.9343 25.9566 23.8648C26.3421 22.7704 26.1058 22.4471 26.6033 21.8004C25.596 22.5963 25.0985 23.2181 24.6757 23.9891C24.0788 25.1333 24.029 25.8172 23.4321 26.7375" fill="#231F20"></path>
  <path d="M21.791 9.62549L21.9278 9.74985L22.2014 9.63793L22.0149 9.42651L21.791 9.62549Z" fill="#231F20"></path>
  <path d="M21.8152 9.92395L21.4297 10.3716L21.7779 10.6577L22.1012 10.5706L21.8774 10.3468L22.2256 10.2846L21.952 9.92395H21.8152Z" fill="#231F20"></path>
  <path d="M21.4922 10.8444L21.8404 10.9936L21.629 10.6951L21.4922 10.8444Z" fill="#231F20"></path>
  <path d="M23.905 10.9562L23.7061 11.1303L23.7682 11.4288L24.1662 11.4661L24.0045 11.1676L24.1786 10.9065L23.9672 10.5707L23.905 10.9562Z" fill="#231F20"></path>
  <path d="M11.2699 14.5624L11.1455 14.7365V14.9479L11.3818 14.9728L11.531 14.7116V14.4505L11.2699 14.2888V14.5624Z" fill="#231F20"></path>
  <path d="M11.1826 15.4701L11.4438 15.5447L11.4189 15.2338L11.2697 15.0846L11.1826 15.4701Z" fill="#231F20"></path>
  <path d="M14.5659 0.708851C13.5088 1.56693 12.7875 3.91733 12.5264 5.33503C13.6083 3.80541 15.2125 2.74835 16.7795 2.74835C18.4335 2.74835 20.0128 3.80541 21.1321 5.3226C20.958 3.85515 20.0874 1.54206 19.0055 0.708851C18.4583 0.298463 17.7246 0 16.7795 0C15.8343 0 15.0757 0.310899 14.5659 0.708851Z" fill="#E31937"></path>
  <path d="M19.117 12.3987C20.6342 9.61301 21.2436 7.73517 21.0943 6.55376C20.97 5.79516 19.4155 4.15361 18.4206 3.79297C18.5574 4.68836 17.8486 6.4667 16.9407 8.38184C16.9407 8.38184 15.0753 11.9883 14.4287 13.0205C13.782 14.0651 9.79004 21.1038 9.79004 21.1038L11.5186 25.9414C13.981 21.6635 17.7615 14.8237 19.0922 12.3987" fill="#E31937"></path>
  <path d="M9.83964 22.9567C9.36707 22.6085 8.91938 22.2229 8.49656 21.8126L9.1681 21.141L9.13079 21.0415C9.13079 21.0415 9.1681 20.9669 9.24271 20.8426L8.38463 21.7006C6.29539 19.5865 5.00205 16.6765 4.98961 13.4805H7.09129V13.953L7.1286 14.4505L7.19078 14.923L7.27783 15.3956L7.38975 15.8682L7.46437 16.1418L7.09129 16.0796L6.6436 16.3532L6.1959 16.2661L5.89744 16.6143L5.92231 16.975L5.885 17.2983L6.24564 17.4475L6.09641 17.0123L6.27052 16.863L6.48193 17.1366L6.89232 17.2486L7.38975 17.746L7.3027 18.0818L7.86232 18.4424L8.13591 18.4051L8.45925 18.6414L8.57117 19.4L9.19297 19.4497L9.31733 19.6114L9.61579 19.9596L9.70285 20.0591C9.70285 20.0591 9.75259 19.972 9.77746 19.9223L9.71528 19.8601L9.57849 19.6984L9.80233 19.599L9.92669 19.6611C10.3246 18.9647 10.8594 18.0445 11.4066 17.0869L11.3693 16.8755L10.9838 16.5148L11.1703 16.3159L11.133 15.8682L10.9464 15.7811L10.9838 15.2837L10.6355 14.9852L10.6977 14.6619L10.934 14.5499L10.9713 14.1893L11.1827 14.0028L11.1579 13.8038H11.3941L11.5682 13.4805H11.9786V13.5053L11.9911 13.6919L12.0159 13.9281L11.904 13.9903L11.9911 14.3137L11.9662 14.6619H12.1403L12.2025 14.8733L12.2895 15.0847L12.4015 15.321C12.4015 15.321 12.4636 15.2215 12.4885 15.1717L12.4139 15.0225L12.3517 14.8111L12.302 14.6619H12.389L12.7124 14.7116C13.16 13.9406 13.5331 13.2442 13.8813 12.6348C13.6451 12.1871 13.4461 11.8016 13.272 11.4036L12.9238 11.6275L12.3641 12.013L12.4139 11.8638L12.5009 11.6524L12.588 11.4534L12.6999 11.242L12.8118 11.043L12.9238 10.8689L12.9984 10.7694C12.9984 10.7694 12.9486 10.6824 12.9238 10.6326L12.8118 10.7943L12.6875 10.9808L12.5756 11.1798L12.4636 11.3912L12.3766 11.5902L12.2895 11.8016L12.2025 12.0379L12.1652 12.1498L11.8916 12.2742L11.7672 12.4856L11.5682 12.6597L11.2449 12.9457L10.9464 13.2069L10.8718 13.3312H9.75259V13.0949L9.7899 12.7343L9.82721 12.3861L9.88939 12.0379L9.97644 11.6897L10.0635 11.3663L10.1754 11.043L10.2998 10.7197L10.449 10.4212L10.5982 10.1227L10.7723 9.82428L10.9464 9.55068L11.133 9.27709L11.3444 9.01594L11.5558 8.75478L11.7548 8.54337L12.2398 9.02837C12.2025 8.91645 12.1652 8.80452 12.1279 8.70504L11.8667 8.44388L12.0159 8.26978C12.0159 8.26978 11.9911 8.15785 11.9786 8.09567L11.9165 8.15785L11.7548 8.33196L10.0635 6.64066L10.3246 6.39194L10.6729 6.09348L11.0211 5.81989L11.4066 5.5463L11.7921 5.31001L11.904 5.24783C11.9165 5.18565 11.9289 5.11104 11.9413 5.04886L11.705 5.18566L11.3195 5.42194L10.934 5.70797L10.5734 6.00643L10.2252 6.30489L9.964 6.55361L8.48412 5.07373C9.70285 3.87988 11.1454 2.95961 12.787 2.37512C12.8367 2.2632 12.8989 2.13884 12.9486 2.02692C8.13591 3.60629 4.67871 8.13298 4.67871 13.468C4.67871 17.5968 6.76796 21.2405 9.95157 23.4168L9.7899 22.9691L9.83964 22.9567ZM12.1776 13.6794L12.3268 13.8162L12.19 13.8784V13.7043L12.1776 13.6794ZM11.618 13.2317L11.904 13.3437H11.5434V13.3188L11.618 13.2317ZM9.66554 14.6743L9.42925 14.438L9.13079 14.5873L9.01887 14.7862L8.45925 15.2837L8.42194 15.6692L8.29758 15.9676L8.38463 16.2412L7.93694 16.1169L7.65091 16.1418L7.56386 15.8309L7.45193 15.3832L7.36488 14.9106L7.3027 14.438L7.26539 13.9406V13.4929H9.6531L9.67797 13.8411L9.70285 14.2017L9.74015 14.5499V14.6494L9.67797 14.6743H9.66554ZM10.8221 13.4929L10.6355 13.7292L10.5858 14.2266L10.3993 14.6121L10.1381 14.8111L9.90182 14.6246V14.5251L9.83964 14.1769L9.81477 13.8162L9.7899 13.4929H10.8221ZM11.7175 8.44388L11.5185 8.64286L11.2822 8.90401L11.0708 9.1776L10.8718 9.46363L10.6977 9.73722L10.4987 10.0357L10.3495 10.359L10.2003 10.6575L10.0759 10.9808L9.964 11.329L9.87695 11.6772L9.7899 12.0254L9.72772 12.3612L9.69041 12.7219L9.66554 13.0825V13.3188H7.25296V12.9581L7.29027 12.4607L7.35245 11.9881L7.4395 11.5156L7.55142 11.0679L7.67578 10.6202L7.82501 10.1725L7.99912 9.73722L8.19809 9.3144L8.39707 8.90401L8.63335 8.5185L8.89451 8.13298L9.15566 7.74747L9.44169 7.38682L9.74015 7.03862L10.0262 6.75259L11.7175 8.44388ZM7.14103 12.4731L7.10373 12.9706V13.3312H5.01448C5.05179 10.1476 6.34513 7.26246 8.43438 5.16078L9.91426 6.64066L9.62823 6.92669L9.32977 7.28734L9.0313 7.66041L8.77015 8.04593L8.50899 8.43145L8.27271 8.84183L8.0613 9.25222L7.86232 9.68748L7.68822 10.1352L7.53899 10.5829L7.41463 11.0306L7.3027 11.5031" fill="#231F20"></path>
  <path d="M20.5477 24.6107C19.3911 24.9962 18.1475 25.2201 16.8666 25.2201V23.1433H17.3019L17.7993 23.106L18.2968 23.0438L18.7693 22.9567L19.2419 22.8448L19.5279 22.7578C19.5279 22.7578 19.4782 22.6583 19.4533 22.621L19.1922 22.6956L18.7196 22.8075L18.2719 22.8946L17.7745 22.9567L17.3019 22.9816H16.8666V20.5939H17.1651L17.5257 20.569L17.8739 20.5317L18.247 20.8302L18.2221 21.1784L18.048 21.2406V21.6261L18.7072 22.0613L18.8564 22.2976L19.0678 22.3349L19.13 22.4842L19.3165 22.4593C18.3838 20.768 17.4511 19.0643 16.8915 18.057H16.8293V17.9575C16.8044 17.9077 16.7796 17.858 16.7547 17.8207C16.7298 17.858 16.705 17.9077 16.6801 17.945V18.0694H16.6055C16.3194 18.5917 15.4862 20.1338 15.4862 20.1338L15.9339 20.0716L16.3816 20.1586L16.6801 20.0467V20.4571H16.4065L16.0583 20.4322L15.7101 20.3949L15.3494 20.3203C15.3494 20.3203 15.2997 20.4198 15.2748 20.4571L15.6728 20.5442L16.0334 20.5815L16.3941 20.6063H16.6677V23.0065H16.2573L15.7847 22.9692L15.2873 22.907L14.8396 22.8199L14.367 22.708L14.0561 22.621C14.0561 22.621 14.0064 22.708 13.9815 22.7578L14.3297 22.8572L14.8023 22.9692L15.2748 23.0562L15.7723 23.1184L16.2697 23.1557H16.6801V25.2325C15.3743 25.2325 14.1183 24.9962 12.9493 24.5983C12.8996 24.6853 12.8622 24.76 12.8125 24.847C14.0561 25.2823 15.3867 25.5185 16.7671 25.5185C18.1475 25.5185 19.4284 25.2947 20.6472 24.8719C20.5974 24.7973 20.5601 24.7102 20.5104 24.6356M16.8542 19.9845L17.2148 19.8477L17.6501 20.2581L17.7496 20.3949L17.5009 20.4322L17.1527 20.4571H16.8542V19.9845Z" fill="#231F20"></path>
  <path d="M20.6835 2.03995C20.7457 2.127 20.8079 2.27623 20.87 2.38815C22.4867 2.93534 23.8422 3.86804 25.0485 5.06189L23.6184 6.49203V6.44228L23.3324 6.31792L23.3075 6.29305L23.2204 6.21844L23.3324 6.10651L22.8847 5.37279L23.0961 5.2733L22.5986 4.86291L22.1012 4.82561L22.3872 5.0992L22.5986 5.37279L22.039 5.01215L21.8027 5.16138L21.6535 5.04945C21.6659 5.11163 21.7157 5.43497 21.7281 5.57177C21.7405 5.73343 21.753 6.01946 21.7654 6.24331L21.8649 6.42985V6.98947L21.7281 7.21332C21.6908 7.53665 21.6162 7.98435 21.5167 8.3823L21.5913 8.45691L21.6286 8.50666L21.4421 8.6932C21.4048 8.79268 21.3799 8.90461 21.3426 9.0041L21.7281 8.61858L21.8027 8.71807L22.039 9.12846L22.3499 9.19064V9.57615L22.5613 10.0114L22.8349 9.94923L22.7106 10.3099L22.9468 10.7451L23.3324 10.969L23.3697 11.0685V11.1058L23.5811 11.8644C23.5811 11.8644 23.5562 12.0012 23.5438 12.1504C23.5189 12.3245 23.4194 12.8095 23.4194 12.8095L23.7179 12.8592L23.7427 12.6603V12.7473L23.7801 13.108V13.3443H21.9893L22.0763 13.2572L22.2877 13.2821L22.437 13.108L22.3499 12.996L22.4991 12.6976L22.8225 12.7473L23.0961 12.3742L23.4567 11.7151L23.1956 11.6778L22.9841 12.1255L22.5489 12.3369L22.3997 12.225L22.5489 12.0136L22.437 11.6032L22.0514 11.7276L21.8773 11.9887L21.6659 11.9514L21.8152 11.74V11.5286L21.5789 11.4664L21.6038 11.1182L21.3675 10.9068L20.8079 10.9317L20.7581 10.8819L20.7208 10.8197L20.6337 10.683C20.3477 11.3048 19.9746 11.9887 19.6016 12.7846C20.099 13.6427 20.6959 14.7246 21.355 15.8563L21.5789 15.4086H21.8152L22.1385 15.2594L22.1136 15.1102L22.3748 15.0853L22.9593 14.7868L22.9344 14.6127L22.5489 14.5257L22.4618 14.3516L22.2007 14.3267L22.0763 14.5878L21.9893 14.4386L22.0141 14.1028L21.8649 14.0158L21.8027 13.5059H23.7801L23.7552 13.8293L23.7303 14.1899L23.693 14.5381L23.6308 14.8863L23.5438 15.2345L23.4567 15.5579L23.3448 15.8812L23.2204 16.2045L23.0712 16.5279L22.922 16.8263L22.7479 17.0999L22.5738 17.3984L22.3997 17.6471C22.3997 17.6471 22.4618 17.7466 22.4867 17.7963L22.5116 17.7715L22.6981 17.4854L22.8722 17.187L23.0588 16.8885L23.208 16.59L23.3572 16.2667L23.4816 15.9434L23.5935 15.5952L23.6806 15.2718L23.7676 14.9236L23.8298 14.563L23.8671 14.2148L23.892 13.8417L23.9168 13.4935H26.3046V13.9412L26.2672 14.4386L26.2051 14.9112L26.118 15.3838L26.0061 15.8314L25.8817 16.304L25.7325 16.7393L25.5584 17.1745L25.3594 17.5974L25.1729 18.0077L24.9366 18.4181L24.6754 18.8036L24.4143 19.1643L24.1407 19.5249L23.8422 19.8731L23.7552 19.9602C23.7552 19.9602 23.8049 20.0472 23.8298 20.097L23.9417 19.9726L24.2402 19.6244L24.5386 19.2389L24.7998 18.8783L25.061 18.4679L25.2972 18.0824L25.5087 17.6471L25.7076 17.2243L25.8817 16.789L26.031 16.3413L26.1553 15.8688L26.2672 15.3962L26.3543 14.9236L26.4165 14.4511L26.4538 13.9536V13.481H28.5555C28.5555 16.6771 27.2497 19.5871 25.1604 21.7012L24.2277 20.7685C24.3397 20.9675 24.4143 21.0919 24.4143 21.0919L24.3894 21.154L25.0485 21.8132C24.6381 22.2111 24.2029 22.5842 23.7427 22.92L23.5811 23.3677C26.7398 21.1914 28.8166 17.5601 28.8166 13.4437C28.8166 8.12114 25.347 3.58201 20.6462 2.01508M21.6535 7.6237C21.6535 7.6237 21.7157 7.41229 21.8276 7.4496C21.9395 7.48691 22.0266 7.6237 22.0266 7.6237L22.2629 7.51178L22.4245 7.69832L22.0141 8.10871L21.9147 7.94704L21.6535 7.6237ZM26.3294 13.3318H23.9417V13.0955L23.9044 12.7349L23.8671 12.3618L23.8298 12.1504L23.8671 11.9141L23.6806 11.5535L23.6433 11.4042V11.056L23.7925 10.77L23.4443 10.1855L23.5686 9.77513L23.0463 9.51397L22.8225 9.63833L22.7106 9.45179L22.524 9.1782L22.3126 8.89217L22.0763 8.63102L21.9768 8.53153L22.1385 8.30768L22.0763 8.22063L22.3375 7.94704L22.4121 8.10871L22.922 8.32012L23.0961 8.64345L23.5065 8.76781L23.8049 8.81756L23.8422 8.94192L24.1656 9.0041L24.2775 8.81756L24.7501 9.37718L24.8371 9.70051L25.0734 9.98654L25.3097 9.86218L25.4962 9.88705V9.60102L25.5584 9.73782L25.7325 10.1731L25.8817 10.6208L26.0061 11.0685L26.118 11.5162L26.2051 11.9887L26.2672 12.4613L26.3046 12.9587V13.3194L26.3294 13.3318ZM26.4787 13.3318V12.9712L26.4414 12.4737L26.3792 11.9763L26.2921 11.5037L26.1802 11.0312L26.0558 10.5835L25.9066 10.1358L25.7325 9.68807L25.5957 9.38961L25.9439 9.15333L25.6703 8.80512L25.2351 8.45691L24.8744 7.78537L24.5884 7.67345V7.64857L24.3024 7.3128L24.1283 6.97703L23.9915 6.93972V6.91485L23.693 6.62882L25.1729 5.14894C27.2621 7.25062 28.5555 10.1358 28.5928 13.3194H26.5035L26.4787 13.3318Z" fill="#231F20"></path>
  <path d="M16.7788 3.40759C16.7788 3.40759 16.7291 3.40759 16.7042 3.40759V3.7558L16.2938 3.76824L15.8585 3.80554H15.7715C15.7715 3.80554 15.7715 3.91747 15.7715 3.97965H15.8212L16.2938 3.9299H16.7042V6.31761H16.3187C16.3187 6.31761 16.356 6.42954 16.3684 6.47928H16.4182H16.6917V7.3498C16.7166 7.42441 16.7415 7.48659 16.7664 7.56121C16.7912 7.49903 16.8161 7.43685 16.841 7.37467V6.47928H17.1892C17.1892 6.47928 17.2265 6.39223 17.2389 6.34248H17.1394H16.841V3.94234H17.2762L17.7488 4.00452H17.8234C17.8234 4.00452 17.8234 3.90503 17.8234 3.85529H17.7612L17.2638 3.80554H16.8285V3.4449C16.8037 3.4449 16.7788 3.4449 16.7415 3.4449" fill="#231F20"></path>
  <path d="M22.0646 25.9664L23.7932 21.1288C23.7932 21.1288 20.9951 16.2663 19.3286 13.3687C18.7815 14.3636 18.0726 15.6196 17.1523 17.2612C18.3959 19.4997 19.8758 22.1112 22.0521 25.9664" fill="#E31937"></path>
  <path d="M15.2117 3.76807C13.9929 4.27794 12.6872 5.91949 12.4633 6.52885C12.2892 7.69784 12.7991 9.30208 14.2914 12.0877C14.6645 11.354 16.0076 9.01605 16.4428 8.08335C15.535 6.16821 15.0873 4.62615 15.2117 3.7805" fill="#E31937"></path>
  <path d="M13.3342 29.7098C13.2223 29.859 13.9311 30.0704 14.0182 29.9709C16.7665 26.2277 20.8704 28.0807 22.3379 28.4911C24.4022 29.088 26.2055 28.9263 27.7102 26.9614C25.9443 27.9688 24.3649 27.5211 23.482 27.2848C22.8104 27.1107 21.8529 26.663 20.2362 26.5511C19.0299 26.4889 15.9831 26.5511 13.3342 29.7098Z" fill="#231F20"></path>
  <path d="M20.137 29.7094V29.7716C20.0748 29.8959 19.5152 30.0701 19.453 29.9706C18.6571 28.9011 17.8612 28.3415 16.9409 28.0181C16.9161 27.9559 18.0353 27.7445 18.0851 27.8689C18.8188 28.3415 19.4157 28.8638 20.1494 29.7218M15.3989 27.645C13.5708 27.5207 11.979 28.242 11.1458 28.4782C9.06897 29.0752 7.27819 28.9135 5.77344 26.9486C7.51447 27.9559 9.11872 27.5082 9.98923 27.272C10.6732 27.0979 11.6183 26.6502 13.2475 26.5382C13.919 26.4885 15.1377 26.4761 16.5803 27.0605C16.344 27.0854 15.374 27.6202 15.3989 27.645Z" fill="#231F20"></path>
  <path d="M180.854 10.8601C181.187 10.2985 181.587 9.77844 182.05 9.32082L178.129 5.02545C177.141 5.96669 176.304 7.05873 175.638 8.26518L180.849 10.8601H180.854Z" fill="#63B335"></path>
  <path d="M190.459 7.82319C191.051 8.0936 191.603 8.44201 192.102 8.85283L196.033 4.56266C194.998 3.66822 193.823 2.93499 192.549 2.38897L190.459 7.82319Z" fill="#E5B735"></path>
  <path d="M199.46 9.11801L194.25 11.7129C194.499 12.2953 194.676 12.909 194.77 13.5538L200.563 13.0078C200.391 11.6349 200.011 10.3297 199.455 9.11801" fill="#C51C2E"></path>
  <path d="M193.875 10.9641L199.086 8.3692C198.441 7.16795 197.619 6.08111 196.652 5.13987L192.721 9.43004C193.168 9.88766 193.558 10.4077 193.875 10.9693" fill="#4C9F37"></path>
  <path d="M179.814 14.6615C179.814 14.5419 179.814 14.4274 179.824 14.313L174.031 13.793C174.016 14.079 174 14.3702 174 14.6615C174 15.7743 174.14 16.8507 174.395 17.8856L179.991 16.2787C179.876 15.7587 179.814 15.2179 179.814 14.6615Z" fill="#3F7F45"></path>
  <path d="M193.147 19.43C192.736 19.9293 192.258 20.3765 191.733 20.7613L194.796 25.7171C195.929 24.9475 196.943 24.0062 197.791 22.935L193.147 19.4352V19.43Z" fill="#FCC310"></path>
  <path d="M194.853 14.6614C194.853 15.2127 194.796 15.7431 194.681 16.2631L200.277 17.87C200.531 16.8403 200.667 15.7691 200.667 14.6614C200.667 14.3858 200.656 14.1154 200.641 13.845L194.848 14.391C194.848 14.4794 194.848 14.573 194.848 14.6614" fill="#E8422E"></path>
  <path d="M181.618 19.5392L176.985 23.0598C177.848 24.1206 178.868 25.0463 180.012 25.8003L183.069 20.8497C182.528 20.4753 182.04 20.0333 181.618 19.5392Z" fill="#F59D2D"></path>
  <path d="M179.913 13.4758C180.017 12.8206 180.204 12.1966 180.469 11.6089L175.258 9.01403C174.681 10.2361 174.291 11.5621 174.109 12.9558L179.913 13.4758Z" fill="#1896D4"></path>
  <path d="M194.083 26.1591L191.026 21.2085C190.469 21.5205 189.871 21.7701 189.242 21.9313L190.318 27.6567C191.66 27.3499 192.924 26.8351 194.078 26.1539" fill="#A31B43"></path>
  <path d="M194.457 17.0744C194.255 17.6672 193.979 18.2288 193.646 18.7488L198.295 22.2538C199.049 21.1669 199.647 19.9657 200.053 18.6812L194.463 17.0744H194.457Z" fill="#2EBCE0"></path>
  <path d="M188.42 22.1029C188.067 22.1549 187.703 22.1809 187.333 22.1809C187.037 22.1809 186.746 22.1601 186.46 22.1289L185.383 27.8544C186.023 27.948 186.673 28 187.339 28C188.077 28 188.795 27.9376 189.502 27.8232L188.425 22.1029H188.42Z" fill="#ED6930"></path>
  <path d="M187.817 7.15755C188.462 7.19915 189.086 7.32395 189.679 7.51636L191.769 2.08214C190.521 1.64533 189.195 1.38532 187.817 1.33331V7.15755Z" fill="#E6243C"></path>
  <path d="M185.633 21.9885C184.983 21.8377 184.364 21.5985 183.787 21.2917L180.724 26.2423C181.899 26.9183 183.189 27.4176 184.557 27.7088L185.633 21.9885Z" fill="#DE1868"></path>
  <path d="M185.076 7.49036C185.68 7.29795 186.319 7.18355 186.975 7.15235V1.33331C185.576 1.36971 184.229 1.62452 182.97 2.06134L185.076 7.49036Z" fill="#1A496A"></path>
  <path d="M181.109 18.8684C180.74 18.3224 180.438 17.7244 180.22 17.0899L174.624 18.6968C175.045 20.0333 175.675 21.2761 176.47 22.389L181.104 18.8684H181.109Z" fill="#C99A2D"></path>
  <path d="M182.679 8.7644C183.173 8.37438 183.714 8.04677 184.291 7.78676L182.185 2.36294C180.932 2.88816 179.777 3.60059 178.753 4.46383L182.674 8.7644H182.679Z" fill="#02699E"></path>
  <line x1="167.707" y1="3.33331" x2="167.707" y2="26.6666" stroke="black" stroke-width="0.747508"></line>
</svg>
